<?xml version="1.0" encoding="UTF-8"?> <svg xmlns="http://www.w3.org/2000/svg" xmlns:xlink="http://www.w3.org/1999/xlink" version="1.1" id="Ebene_1" x="0px" y="0px" viewBox="0 0 478.3 78.1" style="enable-background:new 0 0 478.3 78.1;" xml:space="preserve"> <style type="text/css"> .st0{fill:#004F9F;} .st1{fill:#A3CCEE;} .st2{fill:#3C3C3B;} </style> <g> <g> <g> <path class="st0" d="M124.9,78.2l10.4-15.8c2.8-4.1,1.7-9.7-2.4-12.5L62.5,1.7c-2-1.3-4.4-1.8-6.7-1.4c-2.4,0.4-4.4,1.8-5.8,3.8 L0,78.2h10.3l47.1-69l70.6,48.1l-14.2,20.9L124.9,78.2L124.9,78.2z"></path> <path class="st1" d="M210.6,78.1l6.7-10.1c2.8-4.1,1.7-9.7-2.4-12.5L144.3,7.3c-2-1.3-4.4-1.8-6.7-1.4c-2.4,0.4-4.4,1.8-5.8,3.8 l-18.4,26.9l7.5,5.1l18.3-26.8l70.5,48.1l-10.1,15.3L210.6,78.1z"></path> </g> <path class="st2" d="M273.3,38.3v-2h-5.4v2c0,2.8-0.5,4.7-1.5,5.8c-1,1.1-2.9,1.6-5.6,1.6h-12.1c-2.7,0-4.6-0.6-5.6-1.6 c-1-1.1-1.5-3-1.5-5.8v-6.5h31.8V20.2c0-4.2-1-7.4-3-9.5c-2-2.1-5.2-3.1-9.5-3.1h-12.1c-4.3,0-7.5,1-9.5,3.1c-2,2.1-3,5.2-3,9.5 v18.2c0,4.2,1,7.4,3,9.5c2,2.1,5.2,3.1,9.5,3.1h12.1c4.3,0,7.5-1,9.5-3.1C272.2,45.8,273.3,42.6,273.3,38.3z M241.4,20.2 c0-2.8,0.5-4.7,1.5-5.8c1-1.1,2.9-1.6,5.6-1.6h12.1c2.7,0,4.6,0.6,5.6,1.6c1,1.1,1.5,3.1,1.5,5.8v6.5h-26.4L241.4,20.2L241.4,20.2 z M301.9,29.2l15.7-21.7h-6.7l-13.8,19.1h-0.3L283.1,7.8L283,7.6h-6.7L292,29.3l-15.7,21.7h6.7l13.9-19.1h0.3l13.8,19.1h6.7 L301.9,29.2z M345.2,7.6h-12.1c-4.3,0-7.5,1-9.5,3.1c-2,2.1-3,5.2-3,9.5v18.2c0,4.2,1,7.4,3,9.5c2,2.1,5.2,3.1,9.5,3.1h12.1 c4.3,0,7.5-1,9.5-3.1c2-2.1,3-5.2,3-9.5v-2h-5.4v2c0,2.8-0.5,4.7-1.5,5.8c-1,1.1-2.9,1.6-5.6,1.6h-12.1c-2.7,0-4.6-0.6-5.6-1.6 c-1-1.1-1.5-3.1-1.5-5.8V20.1c0-2.8,0.5-4.7,1.5-5.8c1-1.1,2.9-1.6,5.6-1.6h12.1c2.7,0,4.6,0.6,5.6,1.6c1,1.1,1.5,3.1,1.5,5.8v2 h5.4v-2c0-4.2-1-7.4-3-9.5C352.7,8.6,349.5,7.6,345.2,7.6z M390.1,7.6h-12.1c-4.3,0-7.5,1-9.5,3.1c-2,2.1-3,5.2-3,9.5v18.2 c0,4.2,1,7.4,3,9.5c2,2.1,5.2,3.1,9.5,3.1h12.1c4.3,0,7.5-1,9.5-3.1c2-2.1,3-5.2,3-9.5v-2h-5.4v2c0,2.8-0.5,4.7-1.5,5.8 c-1,1.1-2.9,1.6-5.6,1.6h-12.1c-2.7,0-4.6-0.6-5.6-1.6c-1-1.1-1.5-3.1-1.5-5.8v-6.5h31.8V20.1c0-4.2-1-7.4-3-9.5 C397.6,8.6,394.4,7.6,390.1,7.6z M397.2,26.7h-26.4v-6.5c0-2.8,0.5-4.7,1.5-5.8c1-1.1,2.9-1.6,5.6-1.6h12.1c2.7,0,4.6,0.6,5.6,1.6 c1,1.1,1.5,3.1,1.5,5.8L397.2,26.7L397.2,26.7z M447.8,38.3v-2h-5.4v2c0,2.8-0.5,4.7-1.5,5.8c-1,1.1-2.9,1.6-5.6,1.6h-12.1 c-2.7,0-4.6-0.6-5.6-1.6c-1-1.1-1.5-3.1-1.5-5.8v-6.5h31.8V20.2c0-4.2-1-7.4-3-9.5c-2-2.1-5.2-3.1-9.5-3.1h-12.1 c-4.3,0-7.5,1-9.5,3.1c-2,2.1-3,5.2-3,9.5v18.2c0,4.2,1,7.4,3,9.5c2,2.1,5.2,3.1,9.5,3.1h12.1c4.3,0,7.5-1,9.5-3.1 C446.8,45.8,447.8,42.6,447.8,38.3z M416,20.2c0-2.8,0.5-4.7,1.5-5.8c1-1.1,2.9-1.6,5.6-1.6h12.1c2.7,0,4.6,0.6,5.6,1.6 c1,1.1,1.5,3.1,1.5,5.8v6.5H416L416,20.2L416,20.2z M467.2,45.8c-2.3,0-3.8-0.4-4.5-1.2c-0.7-0.8-1.1-2.4-1.1-4.7V12.7h15.2V7.6 h-15.2V0h-5.4v39.9c0,3.9,0.9,6.7,2.6,8.5c1.7,1.7,4.6,2.6,8.5,2.6h11.1v-5.1L467.2,45.8L467.2,45.8z M243.5,63.8 c1.1,0,3.1,0.2,4.2,0.4l0.1-2.1c-1-0.2-3-0.6-4.6-0.6c-4.8,0-6.1,2.5-6.1,8.3c0,5.5,1.1,8.3,6.1,8.3c1.5,0,3.5-0.3,4.6-0.5 l-0.1-2.2c-1,0.2-2.9,0.4-4.1,0.4c-3.2,0-3.8-1.6-3.8-6C239.8,65.2,240.6,63.8,243.5,63.8z M265,61.7l-4,16.1h2.6l0.9-3.5h6.2 l0.9,3.5h2.6l-4-16.1H265z M265,72.1l2-8.2h1.2l2,8.2L265,72.1L265,72.1z M299.9,66.8c0-3.6-1.9-5.1-5.5-5.1h-6.1v16.1h2.6v-5.8 h3.8l2.3,5.8h2.9l-2.7-6.3C299,70.7,299.9,69.1,299.9,66.8z M294.5,69.8h-3.6v-5.9h3.5c1.9,0,2.8,1.1,2.8,2.9 C297.2,68.5,296.4,69.8,294.5,69.8z M320.2,61.7h-5.6v16.1h5.6c5.3,0,6.5-3.2,6.5-8.3C326.7,64.5,325.4,61.7,320.2,61.7z M320.2,75.5h-3V64h3c3.2,0,3.8,2,3.8,5.5C324,73,323.5,75.5,320.2,75.5z M364.6,63.8c2.1,0,5,0.4,5,0.4l0.1-2.1 c0,0-3-0.6-5.5-0.6c-4.8,0-6.4,2.7-6.4,8.3c0,5.4,1.3,8.3,6.5,8.3c2,0,5.2-0.5,5.4-0.5v-8.2h-4.6v2.3h2v3.9 c-0.3,0.1-1.5,0.2-2.6,0.2c-3.3,0-4-1.6-4-6C360.5,65.2,361.3,63.8,364.6,63.8z M396.3,66.8c0-3.6-1.9-5.1-5.5-5.1h-6.1v16.1h2.6 v-5.8h3.8l2.3,5.8h2.9l-2.7-6.3C395.4,70.7,396.3,69.1,396.3,66.8z M390.9,69.8h-3.6v-5.9h3.5c1.9,0,2.8,1.1,2.8,2.9 C393.6,68.5,392.9,69.8,390.9,69.8z M416.9,61.4c-5,0-6.6,3-6.6,8.4c0,5.4,1.5,8.2,6.6,8.2c5,0,6.5-2.8,6.5-8.2 C423.5,64.4,422,61.4,416.9,61.4z M416.9,75.8c-3.1,0-3.9-1.9-3.9-6c0-4,0.8-6.1,3.9-6.1s3.8,2.1,3.8,6.1 C420.8,73.9,420.1,75.8,416.9,75.8z M447.4,72.7c0,2.2-1.1,3.1-3.3,3.1c-2.1,0-3.3-0.9-3.3-3.1v-11h-2.6v10.9 c0,3.9,2.1,5.5,5.9,5.5c3.9,0,6-1.6,6-5.5V61.7h-2.6L447.4,72.7L447.4,72.7z M471.3,61.7h-5.9v16.1h2.6v-5h3.3 c3.7,0,5.5-2.1,5.5-5.7C476.8,63.5,475,61.7,471.3,61.7z M471.3,70.6H468v-6.6h3.3c2,0,2.8,0.9,2.8,3.2 C474.1,69.3,473.3,70.6,471.3,70.6z"></path> </g> </g> </svg> 